<svg xmlns="http://www.w3.org/2000/svg" viewBox="0 0 24 24" width="24" height="24">
  <path d="M6 2h9l5 5v15a2 2 0 0 1-2 2H6a2 2 0 0 1-2-2V4a2 2 0 0 1 2-2z" fill="#f8fbff" stroke="#287ca8" stroke-width="0.6"/>
  <path d="M15 2l5 5h-5z" fill="#287ca8" opacity="0.85"/>
  <circle cx="12" cy="12" r="2.8" fill="#4ba8d8"/>
  <path d="M12 7.8v1.4M12 14.8v1.4M7.8 12h1.4M14.8 12h1.4M9.2 9.2l1 1M13.8 13.8l1 1M14.8 9.2l-1 1M9.2 14.8l1-1" stroke="#ffffff" stroke-width="0.8" stroke-linecap="round"/>
  <text x="12" y="21.5" text-anchor="middle" font-family="monospace" font-size="4" font-weight="700" fill="#287ca8">RC</text>
</svg>
