<svg xmlns="http://www.w3.org/2000/svg" viewBox="0 0 24 24" width="24" height="24">
  <!-- File shape -->
  <path d="M6 2h9l5 5v15a2 2 0 0 1-2 2H6a2 2 0 0 1-2-2V4a2 2 0 0 1 2-2z" fill="#fff5ee" stroke="#cc3300" stroke-width="0.5"/>
  <!-- Folded corner -->
  <path d="M15 2l5 5h-5z" fill="#cc3300" opacity="0.8"/>
  <!-- Fire flame -->
  <path d="M12 8c-1 1.5-2 2.5-1.5 4.5C11 14 12.5 15 12.5 15s-0.5-1.5 0.5-2c0.5 2 2 3 1.5 4.5-.5 1.5-2 2-2 2s3-1 3-4c0-2-2-4-1.5-7.5z" fill="#ff4500"/>
  <path d="M10 13c0 2 1.5 3.5 2 4 0 0-1-1-0.5-2.5.5 1 1.5 1.5 1.5 2.5s-1 2-1 2 2.5-1 2-3.5c-.5-2-2-3-2-4.5-.5 1-2 2-2 2z" fill="#ff8c30"/>
  <!-- BAD text at bottom -->
  <text x="12" y="22" text-anchor="middle" font-family="monospace" font-size="4" font-weight="bold" fill="#cc3300">BAD</text>
</svg>
